<svg xmlns="http://www.w3.org/2000/svg" xmlns:xlink="http://www.w3.org/1999/xlink" width="47" height="47" viewBox="0 0 47 47">
    <defs>
        <path id="a" d="M0 .174V9.3c.01.086.028.173.028.26.008 1.24.017 2.481.018 3.722 0 .24.09.412.298.53 1.622.933 3.253 1.851 4.86 2.809.43.256.912.077.906-.53-.025-2.265-.011-4.53-.012-6.795v-.321h.341l12.392.007c.46 0 .652-.161.654-.57.008-1.602.01-3.203.016-4.804a.503.503 0 0 0-.272-.47L14.073.173H0zm4.71 10.078c-1.121-.647-2.238-1.3-3.365-1.935-.202-.113-.274-.237-.275-.466-.002-1.953-.017-3.906-.028-5.859-.002-.262 0-.524 0-.812h.268c4.098 0 8.196.001 12.295.005.107 0 .23.013.32.064.994.565 1.982 1.139 2.972 1.711.032.018.06.042.082.111h-.274l-10.95-.007c-.553 0-.71.158-.711.714-.002 1.505-.011 3.01 0 4.514.004.71.048 1.42.076 2.19-.177-.1-.295-.164-.41-.23z"/>
        <path id="c" d="M5.467.174c-.003.007-.004.018-.01.022-1.68.972-3.36 1.945-5.043 2.915-.204.118-.32.28-.32.52 0 1.585-.005 3.169.002 4.753 0 .136.04.288.11.404.123.205.347.196.559.195l12.482-.008h.312c.006.096.014.158.014.22-.002 2.29-.003 4.578-.008 6.866 0 .247.003.488.254.628.246.138.457.029.672-.096 1.553-.907 3.106-1.816 4.668-2.707.31-.176.425-.398.426-.742v-.012c-.016-4.104-.023-8.21-.026-12.314 0-.296-.086-.512-.355-.644H5.467zM2.607 3.02c.059-.037.117-.076.177-.111.933-.542 1.865-1.087 2.801-1.623a.71.71 0 0 1 .335-.098c4.145-.006 8.29-.006 12.435-.007h.21v1.302c.005 1.817.01 3.633.02 5.45 0 .163-.046.255-.192.338-1.198.688-2.39 1.385-3.585 2.079-.06.035-.124.065-.228.12v-.786c-.008-1.984-.017-3.969-.022-5.953-.002-.49-.172-.666-.662-.666l-10.995.007H2.62l-.012-.052z"/>
        <path id="e" d="M5.144.167C3.567 1.082 1.988 1.993.418 2.919c-.166.099-.28.287-.418.433v3.17c.01.103.028.205.028.308.003 3.041.004 6.082.006 9.124 0 .501.156.655.661.655 4.314-.001 8.628-.005 12.942.002h.005c.322 0 .594-.07.874-.235 1.534-.908 3.079-1.8 4.623-2.69.222-.129.347-.295.347-.556.004-1.608.011-3.217.012-4.826.001-.317-.237-.527-.563-.518-.096.003-.191.014-.287.014L6.33 7.808h-.278v-.263L6.022.678C6.021.262 5.844.033 5.564.033a.859.859 0 0 0-.42.134M1.043 9.023c-.008-1.689-.015-3.377-.03-5.065-.002-.176.055-.27.206-.356 1.192-.684 2.38-1.378 3.568-2.067.062-.036.126-.068.242-.13v.378l.017 6.265c.002.637.131.766.78.765l10.848-.009h.377c-.101.076-.144.115-.193.144-.958.558-1.917 1.116-2.88 1.67a.61.61 0 0 1-.29.08c-4.153.004-8.305.004-12.458.004h-.187c0-.579.002-1.13 0-1.68"/>
        <path id="g" d="M10.067.206C6.953 2.023 3.84 3.842.709 5.63c-.462.264-.615.553-.613 1.076.014 3.385-.008 6.77-.023 10.156-.001.26.06.466.3.605 3.29 1.897 6.579 3.796 9.867 5.695a.505.505 0 0 0 .563-.011c.109-.068.22-.133.33-.197 3.125-1.815 6.248-3.631 9.376-5.441.256-.148.374-.333.373-.635-.01-1.745-.004-3.49-.004-5.234h.039c0-1.76-.003-3.521.003-5.282 0-.262-.095-.444-.33-.559-.1-.049-.196-.108-.293-.164-3.137-1.81-6.275-3.617-9.408-5.433a.816.816 0 0 0-.412-.128.808.808 0 0 0-.41.128m.304 11.128C7.526 9.684 4.676 8.04 1.828 6.396c-.06-.034-.117-.074-.194-.124L3.46 5.21C5.728 3.894 7.996 2.58 10.26 1.257c.155-.09.267-.1.43-.005 2.821 1.635 5.647 3.263 8.47 4.893.068.039.133.081.225.139-.094.057-.167.103-.241.146-2.803 1.627-5.606 3.254-8.408 4.884a.404.404 0 0 1-.202.07.324.324 0 0 1-.163-.05"/>
        <path id="i" d="M13.49.552c.01 2.265.025 4.53.038 6.794v.436h-.243L.68 7.772c-.36 0-.585.206-.585.549-.003 1.568.001 3.137-.009 4.705-.002.308.11.506.379.66 1.507.859 3.013 1.72 4.507 2.603.357.21.704.306 1.123.305 4.258-.012 8.516-.003 12.774 0 .559 0 .714-.153.712-.71-.014-4.09-.032-8.18-.037-12.27 0-.346-.12-.561-.42-.733-1.619-.923-3.229-1.86-4.842-2.792A.619.619 0 0 0 13.972 0c-.27 0-.484.215-.482.552m1.062 7.66l-.044-6.337V1.4c.09.047.154.076.214.111 1.212.698 2.424 1.397 3.637 2.094.11.063.177.123.177.272.01 2.192.028 4.385.043 6.577 0 .07-.007.14-.012.222-.091.004-.17.011-.248.011-4.105-.004-8.21-.008-12.315-.019a.91.91 0 0 1-.426-.117c-1-.566-1.994-1.144-3.04-1.747.108-.011.163-.021.218-.021l11.235.009h.002c.375 0 .561-.185.559-.582"/>
    </defs>
    <g fill="none" fill-rule="evenodd">
        <g transform="translate(0 .026)">
            <mask id="b" fill="#fff">
                <use xlink:href="#a"/>
            </mask>
            <path fill="#001ADA" d="M0 .174V9.3c.01.086.028.173.028.26.008 1.24.017 2.481.018 3.722 0 .24.09.412.298.53 1.622.933 3.253 1.851 4.86 2.809.43.256.912.077.906-.53-.025-2.265-.011-4.53-.012-6.795v-.321h.341l12.392.007c.46 0 .652-.161.654-.57.008-1.602.01-3.203.016-4.804a.503.503 0 0 0-.272-.47L14.073.173H0zm4.71 10.078c-1.121-.647-2.238-1.3-3.365-1.935-.202-.113-.274-.237-.275-.466-.002-1.953-.017-3.906-.028-5.859-.002-.262 0-.524 0-.812h.268c4.098 0 8.196.001 12.295.005.107 0 .23.013.32.064.994.565 1.982 1.139 2.972 1.711.032.018.06.042.082.111h-.274l-10.95-.007c-.553 0-.71.158-.711.714-.002 1.505-.011 3.01 0 4.514.004.71.048 1.42.076 2.19-.177-.1-.295-.164-.41-.23z" mask="url(#b)"/>
        </g>
        <g transform="translate(26.617 .026)">
            <mask id="d" fill="#fff">
                <use xlink:href="#c"/>
            </mask>
            <path fill="#001ADA" d="M5.467.174c-.003.007-.004.018-.01.022-1.68.972-3.36 1.945-5.043 2.915-.204.118-.32.28-.32.52 0 1.585-.005 3.169.002 4.753 0 .136.04.288.11.404.123.205.347.196.559.195l12.482-.008h.312c.006.096.014.158.014.22-.002 2.29-.003 4.578-.008 6.866 0 .247.003.488.254.628.246.138.457.029.672-.096 1.553-.907 3.106-1.816 4.668-2.707.31-.176.425-.398.426-.742v-.012c-.016-4.104-.023-8.21-.026-12.314 0-.296-.086-.512-.355-.644H5.467zM2.607 3.02c.059-.037.117-.076.177-.111.933-.542 1.865-1.087 2.801-1.623a.71.71 0 0 1 .335-.098c4.145-.006 8.29-.006 12.435-.007h.21v1.302c.005 1.817.01 3.633.02 5.45 0 .163-.046.255-.192.338-1.198.688-2.39 1.385-3.585 2.079-.06.035-.124.065-.228.12v-.786c-.008-1.984-.017-3.969-.022-5.953-.002-.49-.172-.666-.662-.666l-10.995.007H2.62l-.012-.052z" mask="url(#d)"/>
        </g>
        <g transform="translate(0 29.845)">
            <mask id="f" fill="#fff">
                <use xlink:href="#e"/>
            </mask>
            <path fill="#001ADA" d="M5.144.167C3.567 1.082 1.988 1.993.418 2.919c-.166.099-.28.287-.418.433v3.17c.01.103.028.205.028.308.003 3.041.004 6.082.006 9.124 0 .501.156.655.661.655 4.314-.001 8.628-.005 12.942.002h.005c.322 0 .594-.07.874-.235 1.534-.908 3.079-1.8 4.623-2.69.222-.129.347-.295.347-.556.004-1.608.011-3.217.012-4.826.001-.317-.237-.527-.563-.518-.096.003-.191.014-.287.014L6.33 7.808h-.278v-.263L6.022.678C6.021.262 5.844.033 5.564.033a.859.859 0 0 0-.42.134M1.043 9.023c-.008-1.689-.015-3.377-.03-5.065-.002-.176.055-.27.206-.356 1.192-.684 2.38-1.378 3.568-2.067.062-.036.126-.068.242-.13v.378l.017 6.265c.002.637.131.766.78.765l10.848-.009h.377c-.101.076-.144.115-.193.144-.958.558-1.917 1.116-2.88 1.67a.61.61 0 0 1-.29.08c-4.153.004-8.305.004-12.458.004h-.187c0-.579.002-1.13 0-1.68" mask="url(#f)"/>
        </g>
        <g transform="translate(12.608 11.633)">
            <mask id="h" fill="#fff">
                <use xlink:href="#g"/>
            </mask>
            <path fill="#001ADA" d="M10.067.206C6.953 2.023 3.84 3.842.709 5.63c-.462.264-.615.553-.613 1.076.014 3.385-.008 6.77-.023 10.156-.001.26.06.466.3.605 3.29 1.897 6.579 3.796 9.867 5.695a.505.505 0 0 0 .563-.011c.109-.068.22-.133.33-.197 3.125-1.815 6.248-3.631 9.376-5.441.256-.148.374-.333.373-.635-.01-1.745-.004-3.49-.004-5.234h.039c0-1.76-.003-3.521.003-5.282 0-.262-.095-.444-.33-.559-.1-.049-.196-.108-.293-.164-3.137-1.81-6.275-3.617-9.408-5.433a.816.816 0 0 0-.412-.128.808.808 0 0 0-.41.128m.304 11.128C7.526 9.684 4.676 8.04 1.828 6.396c-.06-.034-.117-.074-.194-.124L3.46 5.21C5.728 3.894 7.996 2.58 10.26 1.257c.155-.09.267-.1.43-.005 2.821 1.635 5.647 3.263 8.47 4.893.068.039.133.081.225.139-.094.057-.167.103-.241.146-2.803 1.627-5.606 3.254-8.408 4.884a.404.404 0 0 1-.202.07.324.324 0 0 1-.163-.05" mask="url(#h)"/>
        </g>
        <g transform="translate(26.617 29.845)">
            <mask id="j" fill="#fff">
                <use xlink:href="#i"/>
            </mask>
            <path fill="#001ADA" d="M13.49.552c.01 2.265.025 4.53.038 6.794v.436h-.243L.68 7.772c-.36 0-.585.206-.585.549-.003 1.568.001 3.137-.009 4.705-.002.308.11.506.379.66 1.507.859 3.013 1.72 4.507 2.603.357.21.704.306 1.123.305 4.258-.012 8.516-.003 12.774 0 .559 0 .714-.153.712-.71-.014-4.09-.032-8.18-.037-12.27 0-.346-.12-.561-.42-.733-1.619-.923-3.229-1.86-4.842-2.792A.619.619 0 0 0 13.972 0c-.27 0-.484.215-.482.552m1.062 7.66l-.044-6.337V1.4c.09.047.154.076.214.111 1.212.698 2.424 1.397 3.637 2.094.11.063.177.123.177.272.01 2.192.028 4.385.043 6.577 0 .07-.007.14-.012.222-.091.004-.17.011-.248.011-4.105-.004-8.21-.008-12.315-.019a.91.91 0 0 1-.426-.117c-1-.566-1.994-1.144-3.04-1.747.108-.011.163-.021.218-.021l11.235.009h.002c.375 0 .561-.185.559-.582" mask="url(#j)"/>
        </g>
    </g>
</svg>
