<svg xmlns="http://www.w3.org/2000/svg" xmlns:xlink="http://www.w3.org/1999/xlink" width="47" height="37" viewBox="0 0 47 37">
    <defs>
        <path id="a" d="M.108.171h35.04v24.276H.108z"/>
        <path id="c" d="M0 .131h23.652v17.674H0z"/>
    </defs>
    <g fill="none" fill-rule="evenodd">
        <g transform="translate(11.707 12.265)">
            <mask id="b" fill="#fff">
                <use xlink:href="#a"/>
            </mask>
            <path fill="#00D0FF" d="M16.112 9.085c.316-.428.723-.69 1.192-.859.769-.276 1.557-.314 2.355-.156.576.114 1.108.328 1.533.75.605.6.61 1.43-.013 2.009-.232.215-.534.354-.805.526-.049.03-.102.053-.17.087.073.046.125.079.178.11.928.536 1.86 1.069 2.784 1.613.144.084.248.083.39 0 3.36-1.959 6.723-3.912 10.084-5.867.061-.036.12-.074.193-.12-.05-.034-.071-.052-.095-.065-3.437-1.985-6.874-3.97-10.309-5.957-.108-.063-.183-.046-.28.01-.933.546-1.867 1.087-2.8 1.63-.057.033-.111.071-.167.107.261.15.525.269.754.435.9.654.91 1.72.025 2.392-.585.445-1.27.628-1.987.64-1.092.021-2.115-.186-2.867-1.108L12.81 7.179l3.301 1.906zm-7.296.39c.328.227.695.417.981.691.588.562.582 1.366.01 1.945a2.594 2.594 0 0 1-.648.467c-.725.375-1.506.447-2.307.358-.618-.068-1.2-.245-1.695-.638-.16-.126-.288-.29-.436-.442l-3.286 1.91c.057.037.095.066.136.09 3.421 1.976 6.842 3.95 10.26 5.93.126.073.208.046.314-.015 3.367-1.96 6.735-3.917 10.102-5.875.062-.036.12-.078.195-.127l-.199-.117c-1.095-.633-2.19-1.267-3.287-1.897-.203-.117-.372-.246-.336-.511.034-.253.22-.34.44-.398.272-.072.548-.14.806-.247a2.57 2.57 0 0 0 .655-.376c.295-.245.29-.537.006-.795a1.883 1.883 0 0 0-.46-.306c-.456-.216-.945-.276-1.446-.257-.768.03-1.437.247-1.924.899-.31.415-.456.42-.907.16-1.244-.719-2.488-1.439-3.735-2.152-.069-.04-.191-.059-.253-.024-1.01.576-2.013 1.162-2.986 1.727zm2.987 14.972c-.1-.068-.199-.14-.304-.201C7.825 22.122 4.15 19.998.472 17.882c-.258-.148-.367-.329-.364-.628.013-1.143.006-2.286.005-3.43 0-.195.076-.342.248-.442 1.37-.792 2.738-1.586 4.107-2.379.353-.205.521-.197.762.13.421.571.985.86 1.673.94.094.012.19.015.31.024v-.28c0-.71.006-1.418.002-2.128a.46.46 0 0 1 .25-.436c1.346-.78 2.69-1.56 4.036-2.338 1.465-.846 2.932-1.69 4.398-2.533.3-.173.488-.159.698.129.47.645 1.11.939 1.888.984h.116v-.657c0-.578.003-1.156.001-1.735 0-.194.071-.34.246-.441 1.37-.792 2.74-1.583 4.103-2.385.243-.142.446-.14.69 0C27.319 2.41 31 4.534 34.68 6.663c.167.097.313.231.468.348v3.926c-.133.121-.25.272-.402.36-3.824 2.222-7.653 4.435-11.478 6.654-3.624 2.102-7.245 4.21-10.866 6.316-.093.054-.179.12-.268.18h-.33z" mask="url(#b)"/>
        </g>
        <g transform="translate(0 .041)">
            <mask id="d" fill="#fff">
                <use xlink:href="#c"/>
            </mask>
            <path fill="#00D0FF" d="M1.319 7.122c.061.04.089.06.118.076 3.427 1.979 6.854 3.956 10.278 5.938.11.064.188.062.298-.002 1.257-.736 2.517-1.466 3.777-2.197.343-.2.495-.172.743.133.268.327.553.627.97.773a3.48 3.48 0 0 0 2.084.087c.337-.089.653-.22.898-.477.236-.246.241-.486-.002-.72a1.422 1.422 0 0 0-.437-.301c-.356-.142-.722-.26-1.09-.368-.221-.065-.402-.162-.435-.406-.033-.247.125-.385.324-.499.88-.507 1.759-1.02 2.637-1.532.277-.16.552-.322.858-.5-1.123-.65-2.216-1.28-3.32-1.918-.314.423-.72.698-1.196.868a4.35 4.35 0 0 1-2.358.154c-.59-.118-1.132-.338-1.553-.789-.542-.58-.552-1.365.016-1.918.24-.234.56-.385.846-.572.048-.03.104-.05.177-.085-.082-.05-.14-.087-.198-.121-.917-.53-1.836-1.056-2.749-1.593-.156-.092-.265-.096-.425-.003C8.46 2.97 5.338 4.783 2.217 6.597l-.898.525zM0 7.004c.16-.133.305-.29.481-.393C4.118 4.49 7.761 2.379 11.396.256c.278-.162.499-.17.78-.005 1.351.795 2.714 1.572 4.074 2.353.195.112.265.273.263.494-.008.777-.003 1.553-.003 2.359.638-.046 1.243-.152 1.71-.64.109-.114.206-.24.31-.36.227-.265.402-.297.702-.124 1.293.746 2.576 1.51 3.884 2.229.409.224.553.478.535.941-.04 1.039-.023 2.08-.012 3.12.004.292-.104.47-.358.61-.542.298-1.07.622-1.609.928-.11.062-.149.133-.148.259.005.702-.018 1.405.004 2.107.023.718-.305 1.232-.906 1.547-1.297.68-2.614.67-3.914-.007-.268-.14-.507-.331-.643-.636-.068.037-.133.07-.196.107-1.254.73-2.508 1.46-3.762 2.193a.468.468 0 0 1-.506 0c-3.769-2.18-7.54-4.358-11.306-6.542-.117-.068-.198-.2-.295-.301V7.004z" mask="url(#d)"/>
        </g>
    </g>
</svg>
