<svg xmlns="http://www.w3.org/2000/svg" xmlns:xlink="http://www.w3.org/1999/xlink" width="42" height="47" viewBox="0 0 42 47">
    <defs>
        <path id="a" d="M0 .122h41.677v46.644H0z"/>
    </defs>
    <g fill="none" fill-rule="evenodd">
        <g transform="translate(0 .112)">
            <mask id="b" fill="#fff">
                <use xlink:href="#a"/>
            </mask>
            <path fill="#00D0FF" d="M7.294 27.689c.02.65.176 1.329.512 2.029.534 1.109 1.278 2.036 2.428 2.591.513.248 1.055.355 1.623.207.853-.223 1.42-.995 1.463-1.97.058-1.339-.436-2.491-1.251-3.528-.558-.71-1.235-1.28-2.135-1.537-1.188-.338-2.234.251-2.527 1.423-.063.256-.077.523-.113.785m12.241-.85c-.03-1.315-.73-2.816-1.82-3.844-.465-.438-.988-.785-1.616-.957-1.179-.322-2.225.263-2.504 1.423a3.33 3.33 0 0 0-.084.99c.099 1.448.753 2.646 1.79 3.655.433.421.933.745 1.519.925 1.22.377 2.28-.198 2.593-1.411.065-.255.082-.521.122-.782M1.35 31.276c.055 1.347.538 2.451 1.341 3.428.558.678 1.224 1.22 2.1 1.458 1.099.3 2.113-.201 2.428-1.245.119-.392.164-.827.138-1.236-.077-1.21-.599-2.252-1.383-3.172-.51-.599-1.115-1.083-1.887-1.33-1.257-.4-2.327.18-2.637 1.44-.06.238-.075.487-.1.657m38.918-17.987c-.144.08-.235.128-.324.179-6.057 3.427-12.112 6.855-18.172 10.276-.188.106-.242.22-.241.42.017 6.828.03 13.656.043 20.483 0 .088.01.175.018.291.13-.07.22-.118.31-.169 6.055-3.42 12.108-6.842 18.166-10.257.194-.109.256-.224.255-.438-.023-5.886-.04-11.773-.055-17.659-.003-1.026 0-2.051 0-3.126m-.763-1.176c-.082-.052-.124-.08-.169-.106-6.13-3.463-12.26-6.925-18.387-10.392-.132-.075-.224-.07-.353.003-6.08 3.462-12.162 6.92-18.243 10.38-.055.031-.103.074-.168.121.086.051.144.088.204.122 6.1 3.447 12.2 6.892 18.296 10.343.16.091.273.077.422-.008 6.048-3.44 12.098-6.876 18.148-10.313.074-.042.146-.087.25-.15m2.172 12.522v10.321c-.205.174-.389.385-.62.516-2.554 1.457-5.117 2.901-7.677 4.347l-12.305 6.947h-.472l-.386-.211C13.676 42.859 7.134 39.164.597 35.46c-.224-.126-.4-.334-.597-.504V24.584c.01-.1.03-.201.03-.301.008-2.123.014-4.244.018-6.367.005-1.882.01-3.765.008-5.647 0-.363.134-.627.479-.78.079-.035.153-.081.228-.124 6.49-3.691 12.982-7.38 19.468-11.08.388-.221.706-.216 1.092.004 2.889 1.646 5.786 3.277 8.682 4.913 3.658 2.067 7.313 4.142 10.982 6.191.465.26.643.563.641 1.08-.01 3.611.004 7.222.014 10.833.001.443.023.886.035 1.329" mask="url(#b)"/>
        </g>
        <path fill="#00D0FF" d="M20.943 15.088c-1.003-.031-1.975-.186-2.854-.668a4.228 4.228 0 0 1-1.066-.809c-.769-.83-.744-1.925.017-2.765.596-.66 1.377-1.009 2.232-1.207 1.45-.337 2.874-.262 4.254.32.477.2.908.476 1.257.858.833.908.81 2.074-.063 2.947-.668.667-1.515.995-2.428 1.167-.444.083-.899.107-1.349.157M38.937 19.6c-.2 2.153-1.143 3.883-3.025 5.064-.58.363-1.23.54-1.924.42-.97-.17-1.642-.955-1.749-2.013-.158-1.562.418-2.9 1.338-4.124.568-.754 1.268-1.367 2.173-1.715 1.601-.616 3.013.252 3.154 1.934l.033.434M29.608 35.712c-.21 2.083-1.152 3.811-3.03 4.997-.53.335-1.126.517-1.766.449-1.026-.11-1.74-.852-1.904-1.923a4.447 4.447 0 0 1 .162-1.977c.411-1.364 1.16-2.515 2.309-3.4.472-.362.996-.635 1.594-.734 1.272-.211 2.3.5 2.537 1.753.047.25.06.508.098.835"/>
    </g>
</svg>
