<svg xmlns="http://www.w3.org/2000/svg" xmlns:xlink="http://www.w3.org/1999/xlink" width="47" height="45" viewBox="0 0 47 45">
    <defs>
        <path id="a" d="M0 0h46.841v44.527H0z"/>
    </defs>
    <g fill="none" fill-rule="evenodd">
        <mask id="b" fill="#fff">
            <use xlink:href="#a"/>
        </mask>
        <path fill="#001ADA" d="M1.407 26.873c.221.146.388.27.566.371 3.418 1.95 6.84 3.896 10.258 5.846 1.434.818 2.866 1.639 4.292 2.471.718.419 1.446.46 2.203.144.254-.106.502-.226.755-.332 1.512-.632 3.015-1.29 4.541-1.887 1.28-.5 2.654-.62 4-.838a44.59 44.59 0 0 0 6.6-1.561c3.163-1.02 6.14-2.411 8.792-4.442.625-.48 1.226-.986 1.65-1.662.544-.863.495-1.645-.172-2.414-.245-.28-.545-.515-.828-.762-.226-.197-.479-.366-.694-.573-.433-.42-.58-.926-.382-1.51.228-.67.07-1.254-.456-1.698a7.007 7.007 0 0 0-1.223-.814c-.47-.25-.988-.407-1.464-.646-.878-.442-1.149-1.045-1.02-2.01a1.415 1.415 0 0 0-.137-.812 2.458 2.458 0 0 0-.675-.789c-.405-.3-.875-.513-1.307-.78-.325-.2-.673-.386-.938-.652-.547-.55-.548-1.3-.014-1.862.249-.262.553-.486.865-.67 2.592-1.531 5.194-3.047 7.789-4.573.207-.121.408-.264.583-.427.45-.42.491-.85.053-1.282-.32-.316-.701-.615-1.111-.788-1.928-.816-3.792-.662-5.61.404C32.9 5.504 27.458 8.65 22.034 11.828c-1.052.616-2.135.787-3.32.532-1.82-.39-3.567-.188-5.22.708-1.406.761-2.548 1.818-3.516 3.08-1.504 1.963-2.563 4.158-3.395 6.47a2.954 2.954 0 0 1-1.155 1.5c-1.184.798-2.366 1.6-3.548 2.4-.144.098-.279.209-.473.355m45.435-3.406v7.722c-.026.146-.05.292-.078.438-.198 1.012-.77 1.803-1.507 2.483-1.378 1.272-2.946 2.272-4.592 3.153-4.051 2.169-8.413 3.368-12.927 4.044-1.855.277-3.633.75-5.353 1.498-1.394.606-2.725 1.375-4.226 1.722h-.852c-.492-.176-1.022-.285-1.47-.539-4.887-2.77-9.76-5.561-14.638-8.35a4.28 4.28 0 0 1-.46-.3C.248 34.97-.007 34.5 0 33.86c.022-2.256.021-4.512.011-6.768-.002-.52.154-.954.524-1.303.2-.187.427-.349.654-.503 1.132-.77 2.265-1.54 3.403-2.3a1.73 1.73 0 0 0 .685-.895c.586-1.628 1.278-3.21 2.168-4.697.97-1.621 2.076-3.134 3.553-4.341 2.355-1.924 5.008-2.714 8.02-2.066.868.187 1.628.022 2.391-.425 5.416-3.173 10.846-6.324 16.269-9.486.98-.57 2.015-.97 3.153-1.05 1.509-.11 2.953.125 4.267.909 1.093.65 1.712 1.547 1.669 2.91-.069 2.203-.027 4.411-.028 6.617 0 .521-.16.984-.472 1.397-.313.413-.719.718-1.161.978l-4.145 2.438c-.073.043-.145.089-.244.15.21.082.38.147.55.217.863.354 1.685.778 2.344 1.457.797.823 1.066 1.793.76 2.903-.046.17-.011.268.12.359.062.042.116.095.178.138 1.06.744 1.919 1.634 2.173 2.968" mask="url(#b)"/>
    </g>
</svg>
