<svg xmlns="http://www.w3.org/2000/svg" xmlns:xlink="http://www.w3.org/1999/xlink" width="40" height="47" viewBox="0 0 40 47">
    <defs>
        <path id="a" d="M0 .2h39.037v46.574H0z"/>
    </defs>
    <g fill="none" fill-rule="evenodd">
        <g transform="translate(0 .025)">
            <mask id="b" fill="#fff">
                <use xlink:href="#a"/>
            </mask>
            <path fill="#001ADA" d="M1.25 9.498c.012.074.017.116.027.156 1.2 4.99 2.437 9.97 3.59 14.97 1.085 4.705 2.891 9.096 5.557 13.113 1.725 2.6 3.564 5.125 5.345 7.688.107.154.21.119.34.084l4.193-1.107a7.81 7.81 0 0 0 2.455-1.11c1.649-1.133 2.717-2.706 3.364-4.565 1.363-3.918 2.688-7.85 4.034-11.775.061-.18.07-.307-.05-.476-4.82-6.813-9.634-13.63-14.441-20.452-.127-.179-.237-.176-.41-.131C11.302 6.91 7.35 7.926 3.396 8.943c-.709.182-1.417.367-2.147.555m14.577 37.276h-.352c-.14-.139-.304-.26-.416-.419-1.574-2.228-3.144-4.46-4.709-6.694-2.856-4.081-5.007-8.5-6.21-13.343-1.282-5.16-2.495-10.336-3.741-15.505C.275 10.304.133 9.801 0 9.294v-.402c.109-.11.2-.253.329-.328 2.446-1.428 4.897-2.85 7.35-4.267.156-.091.327-.171.502-.216 4.391-1.132 8.784-2.257 13.176-3.387C21.96.54 22.56.366 23.16.201h.352c.14.137.308.256.42.414 3.058 4.32 6.111 8.644 9.164 12.968 1.981 2.807 3.96 5.615 5.94 8.422v.352c-.034.074-.075.145-.101.222-1.37 4.008-2.727 8.02-4.115 12.022-.88 2.536-2.441 4.508-4.825 5.833-2.368 1.315-4.683 2.724-7.032 4.074-.49.282-1.007.545-1.544.71-1.253.386-2.527.705-3.791 1.053-.602.166-1.202.335-1.803.503" mask="url(#b)"/>
        </g>
        <path fill="#001ADA" d="M13.413 27.169l4.032-2.297c1.424-.812 2.847-1.624 4.272-2.435.466-.266.721-.197.989.266l2.345 4.063c.259.45.187.716-.263.973a89549.61 89549.61 0 0 1-11.18 6.372c-.469.267-.725.198-.992-.264L6.396 23.07c-.268-.465-.198-.721.27-.988.755-.431 1.51-.862 2.266-1.291.418-.238.7-.162.94.253 1.13 1.955 2.257 3.91 3.386 5.866.046.079.094.156.155.259"/>
    </g>
</svg>
