<svg xmlns="http://www.w3.org/2000/svg" xmlns:xlink="http://www.w3.org/1999/xlink" width="93" height="93" viewBox="0 0 93 93">
    <defs>
        <path id="a" d="M0 .348V18.6c.02.173.055.346.056.519.016 2.482.033 4.963.036 7.444 0 .482.18.824.596 1.063 3.245 1.863 6.506 3.7 9.72 5.616.859.512 1.824.155 1.811-1.06-.049-4.53-.021-9.06-.022-13.59v-.643h.682l24.782.016c.922 0 1.305-.323 1.308-1.143.016-3.202.02-6.403.033-9.605.002-.426-.178-.733-.544-.943L28.146.348H0zm9.419 20.155c-2.242-1.293-4.476-2.598-6.73-3.869-.402-.227-.548-.474-.548-.932-.005-3.906-.036-7.812-.057-11.718-.004-.524 0-1.047 0-1.625h.535c8.197.002 16.394.004 24.59.012.215 0 .46.024.64.127 1.988 1.13 3.966 2.278 5.946 3.423.062.035.118.083.162.222h-.547l-21.9-.015c-1.107 0-1.421.316-1.422 1.428-.003 3.01-.022 6.02-.001 9.029.01 1.42.097 2.839.154 4.38-.355-.2-.59-.328-.822-.462z"/>
        <path id="c" d="M10.935.348c-.007.015-.01.036-.02.043C7.552 2.335 4.191 4.281.828 6.221c-.41.236-.642.561-.642 1.042 0 3.168-.008 6.337.006 9.505 0 .272.08.577.22.808.246.41.693.391 1.117.39 8.321-.007 16.643-.01 24.965-.017h.622c.014.193.03.317.03.442-.004 4.577-.007 9.154-.016 13.731-.001.494.006.976.507 1.256.492.275.914.058 1.344-.193 3.107-1.812 6.211-3.63 9.335-5.412.62-.353.852-.796.854-1.486v-.022c-.032-8.21-.048-16.42-.052-24.63 0-.591-.174-1.023-.71-1.287H10.935zm-5.722 5.69c.118-.075.235-.152.355-.222 1.866-1.085 3.73-2.173 5.603-3.247a1.42 1.42 0 0 1 .668-.195c8.29-.012 16.581-.013 24.872-.015h.42c0 .892-.003 1.748 0 2.605.01 3.633.017 7.266.038 10.899.002.326-.09.51-.382.678-2.396 1.375-4.781 2.769-7.17 4.156-.122.07-.248.131-.458.24v-1.57c-.015-3.97-.032-7.939-.044-11.908-.003-.98-.343-1.331-1.322-1.33-7.33.003-14.66.009-21.99.014h-.566l-.024-.105z"/>
        <path id="e" d="M10.288.334C7.134 2.164 3.977 3.986.837 5.839c-.333.196-.56.572-.837.865v6.34c.02.205.056.41.056.615.006 6.083.008 12.165.011 18.248.001 1.003.313 1.31 1.324 1.31 8.628-.002 17.256-.01 25.884.004h.009c.643 0 1.187-.138 1.748-.47 3.068-1.816 6.157-3.598 9.245-5.38.444-.256.695-.59.696-1.11.007-3.218.021-6.435.024-9.652.001-.635-.474-1.055-1.127-1.037-.191.006-.382.027-.574.028l-24.635.016h-.557v-.527l-.06-13.733c-.003-.832-.356-1.29-.916-1.29-.245 0-.528.087-.84.268M2.085 18.045c-.015-3.376-.028-6.753-.06-10.128-.003-.353.112-.54.413-.713C4.822 5.835 7.197 4.45 9.575 3.07c.123-.071.251-.134.482-.258v.754c.013 4.177.025 8.353.035 12.53.004 1.275.262 1.533 1.558 1.532l21.699-.019h.754c-.203.152-.288.23-.386.287-1.918 1.117-3.836 2.234-5.76 3.34-.17.097-.386.16-.581.16-8.305.009-16.61.009-24.916.01h-.374c0-1.158.005-2.26 0-3.36"/>
        <path id="g" d="M20.134.411C13.907 4.047 7.68 7.684 1.418 11.261c-.924.527-1.23 1.106-1.225 2.152.027 6.77-.018 13.54-.047 20.31-.003.521.122.934.602 1.21 6.578 3.794 13.155 7.592 19.731 11.392.386.223.755.212 1.128-.023.216-.137.437-.265.658-.394 6.25-3.63 12.498-7.262 18.753-10.882.513-.297.749-.666.746-1.27-.019-3.49-.009-6.98-.009-10.468h.079c0-3.522-.006-7.042.005-10.564.001-.524-.188-.889-.659-1.118-.2-.097-.392-.216-.585-.328C34.32 7.658 28.045 4.045 21.778.411c-.291-.169-.557-.254-.823-.254-.265 0-.53.084-.82.254m.606 22.256c-5.69-3.299-11.388-6.585-17.085-9.874-.12-.07-.233-.15-.388-.25l3.654-2.123c4.534-2.633 9.07-5.263 13.598-7.906.31-.181.534-.201.86-.01 5.642 3.27 11.293 6.527 16.942 9.786.134.078.263.163.449.278-.19.114-.335.205-.483.292-5.606 3.255-11.212 6.508-16.815 9.768-.145.084-.27.14-.405.14-.099 0-.204-.03-.327-.1"/>
        <path id="i" d="M26.98 1.104c.021 4.53.05 9.06.076 13.589.002.269 0 .538 0 .87h-.486L1.36 15.546c-.723 0-1.17.41-1.172 1.096-.004 3.137.004 6.274-.016 9.412-.004.615.22 1.011.757 1.317a689.593 689.593 0 0 1 9.013 5.208 4.169 4.169 0 0 0 2.247.61c8.516-.023 17.031-.005 25.547 0 1.118.002 1.43-.307 1.426-1.42-.028-8.18-.064-16.359-.076-24.539 0-.692-.239-1.124-.84-1.467-3.237-1.845-6.456-3.72-9.683-5.583A1.237 1.237 0 0 0 27.944 0c-.54 0-.968.428-.964 1.103m2.123 15.319c-.026-4.224-.058-8.45-.088-12.674-.002-.288 0-.575 0-.946.181.093.308.152.429.221 2.424 1.396 4.847 2.795 7.274 4.187.22.126.353.247.354.545.02 4.385.056 8.77.087 13.155 0 .14-.015.279-.024.444-.183.008-.34.021-.496.021-8.21-.008-16.42-.016-24.63-.038a1.82 1.82 0 0 1-.853-.233c-2-1.133-3.987-2.288-6.08-3.495.216-.022.326-.042.436-.042 7.49.004 14.98.01 22.47.018h.003c.75 0 1.123-.37 1.118-1.163"/>
    </defs>
    <g fill="none" fill-rule="evenodd">
        <g transform="translate(0 .052)">
            <mask id="b" fill="#fff">
                <use xlink:href="#a"/>
            </mask>
            <path fill="#001ADA" d="M0 .348V18.6c.02.173.055.346.056.519.016 2.482.033 4.963.036 7.444 0 .482.18.824.596 1.063 3.245 1.863 6.506 3.7 9.72 5.616.859.512 1.824.155 1.811-1.06-.049-4.53-.021-9.06-.022-13.59v-.643h.682l24.782.016c.922 0 1.305-.323 1.308-1.143.016-3.202.02-6.403.033-9.605.002-.426-.178-.733-.544-.943L28.146.348H0zm9.419 20.155c-2.242-1.293-4.476-2.598-6.73-3.869-.402-.227-.548-.474-.548-.932-.005-3.906-.036-7.812-.057-11.718-.004-.524 0-1.047 0-1.625h.535c8.197.002 16.394.004 24.59.012.215 0 .46.024.64.127 1.988 1.13 3.966 2.278 5.946 3.423.062.035.118.083.162.222h-.547l-21.9-.015c-1.107 0-1.421.316-1.422 1.428-.003 3.01-.022 6.02-.001 9.029.01 1.42.097 2.839.154 4.38-.355-.2-.59-.328-.822-.462z" mask="url(#b)"/>
        </g>
        <g transform="translate(53.234 .052)">
            <mask id="d" fill="#fff">
                <use xlink:href="#c"/>
            </mask>
            <path fill="#001ADA" d="M10.935.348c-.007.015-.01.036-.02.043C7.552 2.335 4.191 4.281.828 6.221c-.41.236-.642.561-.642 1.042 0 3.168-.008 6.337.006 9.505 0 .272.08.577.22.808.246.41.693.391 1.117.39 8.321-.007 16.643-.01 24.965-.017h.622c.014.193.03.317.03.442-.004 4.577-.007 9.154-.016 13.731-.001.494.006.976.507 1.256.492.275.914.058 1.344-.193 3.107-1.812 6.211-3.63 9.335-5.412.62-.353.852-.796.854-1.486v-.022c-.032-8.21-.048-16.42-.052-24.63 0-.591-.174-1.023-.71-1.287H10.935zm-5.722 5.69c.118-.075.235-.152.355-.222 1.866-1.085 3.73-2.173 5.603-3.247a1.42 1.42 0 0 1 .668-.195c8.29-.012 16.581-.013 24.872-.015h.42c0 .892-.003 1.748 0 2.605.01 3.633.017 7.266.038 10.899.002.326-.09.51-.382.678-2.396 1.375-4.781 2.769-7.17 4.156-.122.07-.248.131-.458.24v-1.57c-.015-3.97-.032-7.939-.044-11.908-.003-.98-.343-1.331-1.322-1.33-7.33.003-14.66.009-21.99.014h-.566l-.024-.105z" mask="url(#d)"/>
        </g>
        <g transform="translate(0 59.69)">
            <mask id="f" fill="#fff">
                <use xlink:href="#e"/>
            </mask>
            <path fill="#001ADA" d="M10.288.334C7.134 2.164 3.977 3.986.837 5.839c-.333.196-.56.572-.837.865v6.34c.02.205.056.41.056.615.006 6.083.008 12.165.011 18.248.001 1.003.313 1.31 1.324 1.31 8.628-.002 17.256-.01 25.884.004h.009c.643 0 1.187-.138 1.748-.47 3.068-1.816 6.157-3.598 9.245-5.38.444-.256.695-.59.696-1.11.007-3.218.021-6.435.024-9.652.001-.635-.474-1.055-1.127-1.037-.191.006-.382.027-.574.028l-24.635.016h-.557v-.527l-.06-13.733c-.003-.832-.356-1.29-.916-1.29-.245 0-.528.087-.84.268M2.085 18.045c-.015-3.376-.028-6.753-.06-10.128-.003-.353.112-.54.413-.713C4.822 5.835 7.197 4.45 9.575 3.07c.123-.071.251-.134.482-.258v.754c.013 4.177.025 8.353.035 12.53.004 1.275.262 1.533 1.558 1.532l21.699-.019h.754c-.203.152-.288.23-.386.287-1.918 1.117-3.836 2.234-5.76 3.34-.17.097-.386.16-.581.16-8.305.009-16.61.009-24.916.01h-.374c0-1.158.005-2.26 0-3.36" mask="url(#f)"/>
        </g>
        <g transform="translate(25.216 23.267)">
            <mask id="h" fill="#fff">
                <use xlink:href="#g"/>
            </mask>
            <path fill="#001ADA" d="M20.134.411C13.907 4.047 7.68 7.684 1.418 11.261c-.924.527-1.23 1.106-1.225 2.152.027 6.77-.018 13.54-.047 20.31-.003.521.122.934.602 1.21 6.578 3.794 13.155 7.592 19.731 11.392.386.223.755.212 1.128-.023.216-.137.437-.265.658-.394 6.25-3.63 12.498-7.262 18.753-10.882.513-.297.749-.666.746-1.27-.019-3.49-.009-6.98-.009-10.468h.079c0-3.522-.006-7.042.005-10.564.001-.524-.188-.889-.659-1.118-.2-.097-.392-.216-.585-.328C34.32 7.658 28.045 4.045 21.778.411c-.291-.169-.557-.254-.823-.254-.265 0-.53.084-.82.254m.606 22.256c-5.69-3.299-11.388-6.585-17.085-9.874-.12-.07-.233-.15-.388-.25l3.654-2.123c4.534-2.633 9.07-5.263 13.598-7.906.31-.181.534-.201.86-.01 5.642 3.27 11.293 6.527 16.942 9.786.134.078.263.163.449.278-.19.114-.335.205-.483.292-5.606 3.255-11.212 6.508-16.815 9.768-.145.084-.27.14-.405.14-.099 0-.204-.03-.327-.1" mask="url(#h)"/>
        </g>
        <g transform="translate(53.234 59.69)">
            <mask id="j" fill="#fff">
                <use xlink:href="#i"/>
            </mask>
            <path fill="#001ADA" d="M26.98 1.104c.021 4.53.05 9.06.076 13.589.002.269 0 .538 0 .87h-.486L1.36 15.546c-.723 0-1.17.41-1.172 1.096-.004 3.137.004 6.274-.016 9.412-.004.615.22 1.011.757 1.317a689.593 689.593 0 0 1 9.013 5.208 4.169 4.169 0 0 0 2.247.61c8.516-.023 17.031-.005 25.547 0 1.118.002 1.43-.307 1.426-1.42-.028-8.18-.064-16.359-.076-24.539 0-.692-.239-1.124-.84-1.467-3.237-1.845-6.456-3.72-9.683-5.583A1.237 1.237 0 0 0 27.944 0c-.54 0-.968.428-.964 1.103m2.123 15.319c-.026-4.224-.058-8.45-.088-12.674-.002-.288 0-.575 0-.946.181.093.308.152.429.221 2.424 1.396 4.847 2.795 7.274 4.187.22.126.353.247.354.545.02 4.385.056 8.77.087 13.155 0 .14-.015.279-.024.444-.183.008-.34.021-.496.021-8.21-.008-16.42-.016-24.63-.038a1.82 1.82 0 0 1-.853-.233c-2-1.133-3.987-2.288-6.08-3.495.216-.022.326-.042.436-.042 7.49.004 14.98.01 22.47.018h.003c.75 0 1.123-.37 1.118-1.163" mask="url(#j)"/>
        </g>
    </g>
</svg>
