<svg xmlns="http://www.w3.org/2000/svg" xmlns:xlink="http://www.w3.org/1999/xlink" width="84" height="94" viewBox="0 0 84 94">
    <defs>
        <path id="a" d="M41.552.406c-.367.005-.732.131-1.144.372C27.618 8.238 14.81 15.67 2.01 23.114-.14 24.365.144 23.786.136 26.337.093 40.29.054 54.245 0 68.2v.04c.003.672.148 1.183.789 1.552 13.422 7.742 26.834 15.501 40.267 23.223a.992.992 0 0 0 .486.108h.033c.274-.002.576-.063.831-.12.33-.071.611-.352.92-.531 12.935-7.515 25.868-15.034 38.812-22.533.723-.418 1.037-.911 1.034-1.767-.028-7.143-.016-14.286-.016-21.429h.128c0-7.117-.014-14.235.017-21.352v-.045c-.004-.853-.229-1.441-1.056-1.754-.165-.063-.31-.174-.465-.264C68.757 15.812 55.73 8.302 42.722.762c-.403-.233-.76-.35-1.115-.356h-.055zm1.32 89.031c.044-13.286.092-26.573.127-39.859 0-.454.12-.72.537-.961 12.285-7.12 24.561-14.257 36.84-21.389.17-.099.347-.183.622-.328 0 3.52.006 6.91-.002 10.3-.02 10.023-.047 20.045-.06 30.067-.001.501-.102.824-.584 1.102-12.28 7.112-24.547 14.244-36.818 21.37-.172.101-.351.19-.602.322-.025-.25-.06-.438-.06-.624z"/>
        <path id="c" d="M4.469.863C3.197 1.559 1.963 2.324.69 3.021c-.422.232-.533.518-.529.975.03 3.565.035 7.132.053 10.697 0 .22.034.44.07.876 1.928-1.225 3.89-2.175 5.483-3.55C8.443 9.71 9.506 6.594 9.055 3.085 8.81 1.185 7.93.211 6.607.211c-.622 0-1.342.216-2.138.652M2.34 4.634c.002-.183.164-.432.325-.534A20.776 20.776 0 0 1 4.59 3c1.022-.505 1.78-.174 2.18.895.801 2.14-.22 5.515-2.105 6.819-.683.472-1.432.852-2.337 1.385 0-2.624-.007-5.045.014-7.465"/>
        <path id="e" d="M6.114 1.288c-.78.36-1.263.932-1.596 1.73-.592 1.42-1.28 2.802-1.928 4.198l-.148-.03V3.443c-.596.335-1.064.633-1.56.867-.448.213-.61.493-.6 1.008.038 2.015.02 4.03.022 6.046v5.45c.422-.23.713-.432 1.035-.551.912-.34 1.25-.933 1.14-1.923-.103-.94-.021-1.899-.021-2.988 1.05.748 1.95 1.41 2.877 2.03.19.127.541.213.718.123.853-.44 1.673-.945 2.61-1.488L3.728 8.754 7.602.61c-.57.166-1.013.459-1.488.678"/>
        <path id="g" d="M5.121.28C2.6.9.213 4.113.338 6.725c.063 1.325.814 1.953 2.118 1.726.727-.128 1.437-.352 2.163-.48.824-.144 1.206.294 1.02 1.116-.193.848-.725 1.448-1.441 1.895-.9.56-1.378.446-1.945-.467-.572.327-1.158.637-1.71.998a.73.73 0 0 0-.283.538c.035 1.297 1.01 2.039 2.289 1.772 2.649-.552 5.235-3.642 5.303-6.337.042-1.667-.817-2.4-2.466-2.082-.65.125-1.287.313-1.938.433-.754.14-1.151-.204-.905-.92a4.31 4.31 0 0 1 1.082-1.688c.852-.795 1.35-.65 1.865.38.397-.228.794-.452 1.189-.68.915-.528 1.037-.95.55-1.892C6.939.475 6.458.19 5.809.19c-.211 0-.441.03-.688.091"/>
    </defs>
    <g fill="none" fill-rule="evenodd">
        <g transform="translate(0 .233)">
            <mask id="b" fill="#fff">
                <use xlink:href="#a"/>
            </mask>
            <path fill="#FF6427" d="M41.552.406c-.367.005-.732.131-1.144.372C27.618 8.238 14.81 15.67 2.01 23.114-.14 24.365.144 23.786.136 26.337.093 40.29.054 54.245 0 68.2v.04c.003.672.148 1.183.789 1.552 13.422 7.742 26.834 15.501 40.267 23.223a.992.992 0 0 0 .486.108h.033c.274-.002.576-.063.831-.12.33-.071.611-.352.92-.531 12.935-7.515 25.868-15.034 38.812-22.533.723-.418 1.037-.911 1.034-1.767-.028-7.143-.016-14.286-.016-21.429h.128c0-7.117-.014-14.235.017-21.352v-.045c-.004-.853-.229-1.441-1.056-1.754-.165-.063-.31-.174-.465-.264C68.757 15.812 55.73 8.302 42.722.762c-.403-.233-.76-.35-1.115-.356h-.055zm1.32 89.031c.044-13.286.092-26.573.127-39.859 0-.454.12-.72.537-.961 12.285-7.12 24.561-14.257 36.84-21.389.17-.099.347-.183.622-.328 0 3.52.006 6.91-.002 10.3-.02 10.023-.047 20.045-.06 30.067-.001.501-.102.824-.584 1.102-12.28 7.112-24.547 14.244-36.818 21.37-.172.101-.351.19-.602.322-.025-.25-.06-.438-.06-.624z" mask="url(#b)"/>
        </g>
        <g transform="translate(58.042 52.535)">
            <mask id="d" fill="#fff">
                <use xlink:href="#c"/>
            </mask>
            <path fill="#FF6427" d="M4.469.863C3.197 1.559 1.963 2.324.69 3.021c-.422.232-.533.518-.529.975.03 3.565.035 7.132.053 10.697 0 .22.034.44.07.876 1.928-1.225 3.89-2.175 5.483-3.55C8.443 9.71 9.506 6.594 9.055 3.085 8.81 1.185 7.93.211 6.607.211c-.622 0-1.342.216-2.138.652M2.34 4.634c.002-.183.164-.432.325-.534A20.776 20.776 0 0 1 4.59 3c1.022-.505 1.78-.174 2.18.895.801 2.14-.22 5.515-2.105 6.819-.683.472-1.432.852-2.337 1.385 0-2.624-.007-5.045.014-7.465" mask="url(#d)"/>
        </g>
        <g transform="translate(68.885 44.88)">
            <mask id="f" fill="#fff">
                <use xlink:href="#e"/>
            </mask>
            <path fill="#FF6427" d="M6.114 1.288c-.78.36-1.263.932-1.596 1.73-.592 1.42-1.28 2.802-1.928 4.198l-.148-.03V3.443c-.596.335-1.064.633-1.56.867-.448.213-.61.493-.6 1.008.038 2.015.02 4.03.022 6.046v5.45c.422-.23.713-.432 1.035-.551.912-.34 1.25-.933 1.14-1.923-.103-.94-.021-1.899-.021-2.988 1.05.748 1.95 1.41 2.877 2.03.19.127.541.213.718.123.853-.44 1.673-.945 2.61-1.488L3.728 8.754 7.602.61c-.57.166-1.013.459-1.488.678" mask="url(#f)"/>
        </g>
        <g transform="translate(48.475 58.275)">
            <mask id="h" fill="#fff">
                <use xlink:href="#g"/>
            </mask>
            <path fill="#FF6427" d="M5.121.28C2.6.9.213 4.113.338 6.725c.063 1.325.814 1.953 2.118 1.726.727-.128 1.437-.352 2.163-.48.824-.144 1.206.294 1.02 1.116-.193.848-.725 1.448-1.441 1.895-.9.56-1.378.446-1.945-.467-.572.327-1.158.637-1.71.998a.73.73 0 0 0-.283.538c.035 1.297 1.01 2.039 2.289 1.772 2.649-.552 5.235-3.642 5.303-6.337.042-1.667-.817-2.4-2.466-2.082-.65.125-1.287.313-1.938.433-.754.14-1.151-.204-.905-.92a4.31 4.31 0 0 1 1.082-1.688c.852-.795 1.35-.65 1.865.38.397-.228.794-.452 1.189-.68.915-.528 1.037-.95.55-1.892C6.939.475 6.458.19 5.809.19c-.211 0-.441.03-.688.091" mask="url(#h)"/>
        </g>
    </g>
</svg>
