<svg xmlns="http://www.w3.org/2000/svg" xmlns:xlink="http://www.w3.org/1999/xlink" width="70" height="94" viewBox="0 0 70 94">
    <defs>
        <path id="a" d="M14.594.112c-.268.002-.536.089-.828.26C9.546 2.847 5.316 5.3 1.08 7.747.632 8.006.19 8.244 0 8.762V39.106c.258.254.476.575.778.75 4.407 2.567 8.827 5.113 13.24 7.668.418.242.803.238 1.222-.007 3.863-2.254 7.73-4.501 11.596-6.75.119-.069.247-.123.422-.208v.528c-.005 4.01-.001 8.02-.029 12.03-.004.649.238 1.038.789 1.353 4.132 2.368 8.252 4.757 12.382 7.127.29.166.4.338.4.674-.02 4.509-.01 9.018-.044 13.528-.005.704.24 1.124.844 1.47 4.397 2.518 8.782 5.06 13.166 7.6.418.242.805.254 1.224.01a4748.05 4748.05 0 0 1 13.226-7.69c.505-.293.725-.678.725-1.253.002-4.783.011-9.565.03-14.349.002-.493-.2-.81-.617-1.05-4.17-2.398-8.333-4.808-12.509-7.196-.348-.199-.447-.419-.444-.796.02-4.557.021-9.115.042-13.673.001-.484-.149-.836-.572-1.08-4.42-2.542-8.843-5.081-13.254-7.64-.568-.33-1.042-.333-1.611 0-3.761 2.206-7.536 4.388-11.307 6.577-.148.086-.301.164-.52.283v-.576c.001-4.251-.005-8.503.007-12.754.014-4.88.043-9.758.065-14.638.002-.451-.171-.803-.577-1.037C24.254 5.464 19.83 2.926 15.42.364c-.288-.167-.55-.25-.813-.252h-.014zm-.222 15.317C10.72 13.307 7.058 11.199 3.4 9.085c-.082-.047-.155-.109-.264-.186l5.407-3.14c1.905-1.106 3.813-2.21 5.714-3.323.23-.134.404-.173.657-.026 3.686 2.14 7.38 4.267 11.07 6.398.042.024.078.056.154.11-.13.085-.24.166-.357.234-3.569 2.076-7.139 4.149-10.706 6.227-.141.082-.265.141-.402.141a.588.588 0 0 1-.3-.091zm1.292 13.82c.02-3.833.04-7.665.077-11.498.002-.182.127-.446.275-.533 3.646-2.137 7.303-4.256 10.958-6.377.039-.022.088-.027.21-.063 0 1.428.002 2.81 0 4.193-.006 2.56-.018 5.12-.018 7.681 0 .264-.056.433-.307.578-3.636 2.1-7.266 4.211-10.897 6.319-.068.04-.14.07-.264.132-.014-.168-.035-.3-.034-.432zm-2.51 15.425c-3.58-2.064-7.158-4.131-10.739-6.194-.23-.132-.4-.242-.399-.573.022-3.879.023-7.759.03-11.637 0-.09.012-.182.021-.326.184.091.325.153.458.229 3.576 2.062 7.15 4.126 10.727 6.186.23.133.39.252.388.575-.018 3.895-.017 7.79-.022 11.685 0 .077-.009.154-.017.282-.172-.087-.314-.15-.447-.227zm28.475.574c-3.681-2.14-7.371-4.265-11.06-6.395-.053-.03-.102-.069-.227-.153.907-.529 1.752-1.023 2.599-1.515 2.838-1.648 5.677-3.295 8.514-4.946.217-.126.383-.202.65-.047 3.672 2.135 7.354 4.252 11.033 6.375.055.032.104.074.203.144-.133.09-.24.171-.356.24-3.585 2.083-7.17 4.165-10.754 6.25-.12.07-.225.127-.346.127a.506.506 0 0 1-.256-.08zm-1.254 14.007c-3.58-2.065-7.159-4.134-10.742-6.193-.242-.14-.382-.273-.38-.587.02-3.864.023-7.728.032-11.591 0-.096.008-.191.016-.35.151.074.276.126.393.193 3.619 2.086 7.238 4.17 10.847 6.27.155.09.322.326.323.493.005 3.912-.012 7.824-.026 11.736 0 .061-.015.123-.032.258-.18-.095-.308-.158-.431-.23zm14.734 8.729c-3.653-2.12-7.31-4.229-10.967-6.34-.083-.049-.162-.105-.26-.169.122-.08.227-.153.336-.217 3.587-2.084 7.174-4.165 10.759-6.252.219-.128.395-.2.656-.05 3.698 2.148 7.403 4.282 11.106 6.42.04.024.074.06.13.107-.111.076-.21.152-.316.214-3.595 2.089-7.193 4.175-10.786 6.27a.689.689 0 0 1-.347.113.616.616 0 0 1-.311-.096zm1.322 13.758c.002-3.783.005-7.566.002-11.348 0-.267.018-.467.3-.629 3.63-2.094 7.253-4.203 10.878-6.308.08-.046.168-.082.302-.147.01.14.026.242.025.345-.007 3.847-.017 7.694-.02 11.54 0 .261-.05.438-.303.584-3.648 2.106-7.29 4.224-10.932 6.339-.054.03-.112.053-.252.12v-.496z"/>
        <path id="c" d="M13.972.444A4867.301 4867.301 0 0 1 .74 8.123c-.386.223-.577.538-.578.982C.149 13.87.14 18.638.11 23.405c-.004.654.234 1.07.808 1.398 3.077 1.75 6.138 3.526 9.2 5.3 1.432.83 2.854 1.674 4.28 2.512h.773c.232-.16.453-.339.696-.48 4.213-2.452 8.425-4.905 12.648-7.34.553-.318.783-.713.784-1.359.004-4.766.039-9.533.063-14.3.003-.46-.21-.791-.609-1.02C24.321 5.564 19.886 3.015 15.458.45c-.261-.151-.507-.23-.753-.23-.238 0-.477.074-.733.223m.565 15.115c-3.71-2.122-7.41-4.264-11.11-6.403-.04-.023-.079-.052-.176-.119.17-.106.31-.198.456-.282 3.533-2.053 7.069-4.101 10.596-6.166.305-.178.517-.174.82.002 3.561 2.07 7.13 4.123 10.698 6.182.133.078.259.17.442.29l-3.296 1.911c-2.612 1.516-5.223 3.038-7.843 4.541a.802.802 0 0 1-.372.09.444.444 0 0 1-.215-.046m1.254 11.696c.014-3.107.033-6.214.042-9.322.001-.27.028-.463.307-.624 3.62-2.085 7.228-4.187 10.84-6.285.082-.047.169-.087.297-.153.016.151.04.27.04.39-.015 3.815-.034 7.63-.046 11.446 0 .287-.031.492-.329.664-3.595 2.07-7.18 4.16-10.769 6.244-.106.062-.221.11-.383.188 0-.887-.003-1.718 0-2.548"/>
    </defs>
    <g fill="none" fill-rule="evenodd">
        <g transform="translate(0 .29)">
            <mask id="b" fill="#fff">
                <use xlink:href="#a"/>
            </mask>
            <path fill="#00D0FF" d="M14.594.112c-.268.002-.536.089-.828.26C9.546 2.847 5.316 5.3 1.08 7.747.632 8.006.19 8.244 0 8.762V39.106c.258.254.476.575.778.75 4.407 2.567 8.827 5.113 13.24 7.668.418.242.803.238 1.222-.007 3.863-2.254 7.73-4.501 11.596-6.75.119-.069.247-.123.422-.208v.528c-.005 4.01-.001 8.02-.029 12.03-.004.649.238 1.038.789 1.353 4.132 2.368 8.252 4.757 12.382 7.127.29.166.4.338.4.674-.02 4.509-.01 9.018-.044 13.528-.005.704.24 1.124.844 1.47 4.397 2.518 8.782 5.06 13.166 7.6.418.242.805.254 1.224.01a4748.05 4748.05 0 0 1 13.226-7.69c.505-.293.725-.678.725-1.253.002-4.783.011-9.565.03-14.349.002-.493-.2-.81-.617-1.05-4.17-2.398-8.333-4.808-12.509-7.196-.348-.199-.447-.419-.444-.796.02-4.557.021-9.115.042-13.673.001-.484-.149-.836-.572-1.08-4.42-2.542-8.843-5.081-13.254-7.64-.568-.33-1.042-.333-1.611 0-3.761 2.206-7.536 4.388-11.307 6.577-.148.086-.301.164-.52.283v-.576c.001-4.251-.005-8.503.007-12.754.014-4.88.043-9.758.065-14.638.002-.451-.171-.803-.577-1.037C24.254 5.464 19.83 2.926 15.42.364c-.288-.167-.55-.25-.813-.252h-.014zm-.222 15.317C10.72 13.307 7.058 11.199 3.4 9.085c-.082-.047-.155-.109-.264-.186l5.407-3.14c1.905-1.106 3.813-2.21 5.714-3.323.23-.134.404-.173.657-.026 3.686 2.14 7.38 4.267 11.07 6.398.042.024.078.056.154.11-.13.085-.24.166-.357.234-3.569 2.076-7.139 4.149-10.706 6.227-.141.082-.265.141-.402.141a.588.588 0 0 1-.3-.091zm1.292 13.82c.02-3.833.04-7.665.077-11.498.002-.182.127-.446.275-.533 3.646-2.137 7.303-4.256 10.958-6.377.039-.022.088-.027.21-.063 0 1.428.002 2.81 0 4.193-.006 2.56-.018 5.12-.018 7.681 0 .264-.056.433-.307.578-3.636 2.1-7.266 4.211-10.897 6.319-.068.04-.14.07-.264.132-.014-.168-.035-.3-.034-.432zm-2.51 15.425c-3.58-2.064-7.158-4.131-10.739-6.194-.23-.132-.4-.242-.399-.573.022-3.879.023-7.759.03-11.637 0-.09.012-.182.021-.326.184.091.325.153.458.229 3.576 2.062 7.15 4.126 10.727 6.186.23.133.39.252.388.575-.018 3.895-.017 7.79-.022 11.685 0 .077-.009.154-.017.282-.172-.087-.314-.15-.447-.227zm28.475.574c-3.681-2.14-7.371-4.265-11.06-6.395-.053-.03-.102-.069-.227-.153.907-.529 1.752-1.023 2.599-1.515 2.838-1.648 5.677-3.295 8.514-4.946.217-.126.383-.202.65-.047 3.672 2.135 7.354 4.252 11.033 6.375.055.032.104.074.203.144-.133.09-.24.171-.356.24-3.585 2.083-7.17 4.165-10.754 6.25-.12.07-.225.127-.346.127a.506.506 0 0 1-.256-.08zm-1.254 14.007c-3.58-2.065-7.159-4.134-10.742-6.193-.242-.14-.382-.273-.38-.587.02-3.864.023-7.728.032-11.591 0-.096.008-.191.016-.35.151.074.276.126.393.193 3.619 2.086 7.238 4.17 10.847 6.27.155.09.322.326.323.493.005 3.912-.012 7.824-.026 11.736 0 .061-.015.123-.032.258-.18-.095-.308-.158-.431-.23zm14.734 8.729c-3.653-2.12-7.31-4.229-10.967-6.34-.083-.049-.162-.105-.26-.169.122-.08.227-.153.336-.217 3.587-2.084 7.174-4.165 10.759-6.252.219-.128.395-.2.656-.05 3.698 2.148 7.403 4.282 11.106 6.42.04.024.074.06.13.107-.111.076-.21.152-.316.214-3.595 2.089-7.193 4.175-10.786 6.27a.689.689 0 0 1-.347.113.616.616 0 0 1-.311-.096zm1.322 13.758c.002-3.783.005-7.566.002-11.348 0-.267.018-.467.3-.629 3.63-2.094 7.253-4.203 10.878-6.308.08-.046.168-.082.302-.147.01.14.026.242.025.345-.007 3.847-.017 7.694-.02 11.54 0 .261-.05.438-.303.584-3.648 2.106-7.29 4.224-10.932 6.339-.054.03-.112.053-.252.12v-.496z" mask="url(#b)"/>
        </g>
        <g transform="translate(0 61.092)">
            <mask id="d" fill="#fff">
                <use xlink:href="#c"/>
            </mask>
            <path fill="#00D0FF" d="M13.972.444A4867.301 4867.301 0 0 1 .74 8.123c-.386.223-.577.538-.578.982C.149 13.87.14 18.638.11 23.405c-.004.654.234 1.07.808 1.398 3.077 1.75 6.138 3.526 9.2 5.3 1.432.83 2.854 1.674 4.28 2.512h.773c.232-.16.453-.339.696-.48 4.213-2.452 8.425-4.905 12.648-7.34.553-.318.783-.713.784-1.359.004-4.766.039-9.533.063-14.3.003-.46-.21-.791-.609-1.02C24.321 5.564 19.886 3.015 15.458.45c-.261-.151-.507-.23-.753-.23-.238 0-.477.074-.733.223m.565 15.115c-3.71-2.122-7.41-4.264-11.11-6.403-.04-.023-.079-.052-.176-.119.17-.106.31-.198.456-.282 3.533-2.053 7.069-4.101 10.596-6.166.305-.178.517-.174.82.002 3.561 2.07 7.13 4.123 10.698 6.182.133.078.259.17.442.29l-3.296 1.911c-2.612 1.516-5.223 3.038-7.843 4.541a.802.802 0 0 1-.372.09.444.444 0 0 1-.215-.046m1.254 11.696c.014-3.107.033-6.214.042-9.322.001-.27.028-.463.307-.624 3.62-2.085 7.228-4.187 10.84-6.285.082-.047.169-.087.297-.153.016.151.04.27.04.39-.015 3.815-.034 7.63-.046 11.446 0 .287-.031.492-.329.664-3.595 2.07-7.18 4.16-10.769 6.244-.106.062-.221.11-.383.188 0-.887-.003-1.718 0-2.548" mask="url(#d)"/>
        </g>
    </g>
</svg>
