<svg xmlns="http://www.w3.org/2000/svg" xmlns:xlink="http://www.w3.org/1999/xlink" width="58" height="94" viewBox="0 0 58 94">
    <defs>
        <path id="a" d="M28.258.084c-.193.126-.38.26-.58.377C18.99 5.51 10.3 10.558 1.61 15.606c-.188.109-.378.215-.57.314-.47.241-.666.626-.669 1.147C.351 21.11.336 25.15.288 29.192c-.009.727.27 1.167.89 1.524 8.711 5.01 17.413 10.037 26.117 15.06.266.154.531.313.794.472.426.257.853.26 1.282.01 8.97-5.214 17.94-10.43 26.912-15.639.487-.282.719-.662.72-1.234.005-1.1.054-2.2.084-3.3v-9.574c-.335-.257-.644-.558-1.007-.767C47.084 10.546 38.083 5.357 29.084.165c-.027-.016-.043-.053-.065-.08h-.761zm.161 31.092c-8.076-4.673-16.158-9.336-24.239-14-.093-.055-.182-.115-.34-.213.203-.125.362-.23.528-.325 7.906-4.593 15.814-9.181 23.713-13.785.407-.238.695-.26 1.12-.015 7.94 4.605 15.893 9.189 23.842 13.777.184.106.365.217.604.36l-6.2 3.598C41.38 24.098 35.313 27.62 29.25 31.154c-.16.093-.298.145-.439.145a.774.774 0 0 1-.392-.123z"/>
        <path id="c" d="M46.73 1.7c2.104 1.216 4.21 2.43 6.313 3.644.184.106.365.217.604.36l-6.2 3.599c-6.067 3.524-12.135 7.047-18.197 10.58-.299.175-.52.203-.83.023C20.342 15.232 12.26 10.57 4.18 5.904c-.093-.054-.182-.113-.34-.211.203-.125.362-.23.528-.327l6.28-3.647L8.371.408l-6.76 3.927c-.189.109-.379.215-.572.314-.468.241-.665.627-.668 1.147C.351 9.838.336 13.88.288 17.922c-.009.727.27 1.166.89 1.523 8.711 5.01 17.413 10.037 26.117 15.06.266.154.531.313.794.472.426.258.853.26 1.282.01 8.97-5.214 17.94-10.429 26.912-15.638.487-.283.719-.662.72-1.234.005-1.1.054-2.2.084-3.301V5.24c-.335-.258-.644-.558-1.007-.768L48.993.38 46.73 1.7z"/>
        <path id="e" d="M46.73 1.7c2.104 1.216 4.21 2.43 6.313 3.644.184.106.365.217.604.36l-6.2 3.599c-6.067 3.524-12.135 7.047-18.197 10.58-.299.175-.52.203-.83.023C20.342 15.232 12.26 10.57 4.18 5.904c-.093-.054-.182-.113-.34-.211.203-.125.362-.23.528-.327l6.28-3.647L8.371.408l-6.76 3.927c-.189.109-.379.215-.572.314-.468.241-.665.627-.668 1.147C.351 9.838.336 13.88.288 17.922c-.009.727.27 1.166.89 1.523 8.711 5.01 17.413 10.037 26.117 15.06.266.154.531.313.794.472.426.258.853.26 1.282.01 8.97-5.214 17.94-10.429 26.912-15.638.487-.283.719-.662.72-1.234.005-1.1.054-2.2.084-3.301V5.24c-.335-.258-.644-.558-1.007-.768L48.993.38 46.73 1.7z"/>
    </defs>
    <g fill="none" fill-rule="evenodd">
        <g transform="translate(0 .369)">
            <mask id="b" fill="#fff">
                <use xlink:href="#a"/>
            </mask>
            <path fill="#CE38DA" d="M28.258.084c-.193.126-.38.26-.58.377C18.99 5.51 10.3 10.558 1.61 15.606c-.188.109-.378.215-.57.314-.47.241-.666.626-.669 1.147C.351 21.11.336 25.15.288 29.192c-.009.727.27 1.167.89 1.524 8.711 5.01 17.413 10.037 26.117 15.06.266.154.531.313.794.472.426.257.853.26 1.282.01 8.97-5.214 17.94-10.43 26.912-15.639.487-.282.719-.662.72-1.234.005-1.1.054-2.2.084-3.3v-9.574c-.335-.257-.644-.558-1.007-.767C47.084 10.546 38.083 5.357 29.084.165c-.027-.016-.043-.053-.065-.08h-.761zm.161 31.092c-8.076-4.673-16.158-9.336-24.239-14-.093-.055-.182-.115-.34-.213.203-.125.362-.23.528-.325 7.906-4.593 15.814-9.181 23.713-13.785.407-.238.695-.26 1.12-.015 7.94 4.605 15.893 9.189 23.842 13.777.184.106.365.217.604.36l-6.2 3.598C41.38 24.098 35.313 27.62 29.25 31.154c-.16.093-.298.145-.439.145a.774.774 0 0 1-.392-.123z" mask="url(#b)"/>
        </g>
        <g opacity=".5" transform="translate(0 34.903)">
            <mask id="d" fill="#fff">
                <use xlink:href="#c"/>
            </mask>
            <path fill="#CE38DA" d="M46.73 1.7c2.104 1.216 4.21 2.43 6.313 3.644.184.106.365.217.604.36l-6.2 3.599c-6.067 3.524-12.135 7.047-18.197 10.58-.299.175-.52.203-.83.023C20.342 15.232 12.26 10.57 4.18 5.904c-.093-.054-.182-.113-.34-.211.203-.125.362-.23.528-.327l6.28-3.647L8.371.408l-6.76 3.927c-.189.109-.379.215-.572.314-.468.241-.665.627-.668 1.147C.351 9.838.336 13.88.288 17.922c-.009.727.27 1.166.89 1.523 8.711 5.01 17.413 10.037 26.117 15.06.266.154.531.313.794.472.426.258.853.26 1.282.01 8.97-5.214 17.94-10.429 26.912-15.638.487-.283.719-.662.72-1.234.005-1.1.054-2.2.084-3.301V5.24c-.335-.258-.644-.558-1.007-.768L48.993.38 46.73 1.7z" mask="url(#d)"/>
        </g>
        <g opacity=".2" transform="translate(0 58.021)">
            <mask id="f" fill="#fff">
                <use xlink:href="#e"/>
            </mask>
            <path fill="#CE38DA" d="M46.73 1.7c2.104 1.216 4.21 2.43 6.313 3.644.184.106.365.217.604.36l-6.2 3.599c-6.067 3.524-12.135 7.047-18.197 10.58-.299.175-.52.203-.83.023C20.342 15.232 12.26 10.57 4.18 5.904c-.093-.054-.182-.113-.34-.211.203-.125.362-.23.528-.327l6.28-3.647L8.371.408l-6.76 3.927c-.189.109-.379.215-.572.314-.468.241-.665.627-.668 1.147C.351 9.838.336 13.88.288 17.922c-.009.727.27 1.166.89 1.523 8.711 5.01 17.413 10.037 26.117 15.06.266.154.531.313.794.472.426.258.853.26 1.282.01 8.97-5.214 17.94-10.429 26.912-15.638.487-.283.719-.662.72-1.234.005-1.1.054-2.2.084-3.301V5.24c-.335-.258-.644-.558-1.007-.768L48.993.38 46.73 1.7z" mask="url(#f)"/>
        </g>
    </g>
</svg>
