<svg xmlns="http://www.w3.org/2000/svg" xmlns:xlink="http://www.w3.org/1999/xlink" width="83" height="94" viewBox="0 0 83 94">
    <defs>
        <path id="a" d="M0 1.557V6.97c0 1.805 0 3.61.002 5.414 0 .217 0 .437.037.649.73 4.022 1.463 8.044 2.199 12.065 1.524 8.339 3.052 16.676 4.568 25.016.117.642.368 1.158 1.017 1.36.64.198 1.155-.04 1.62-.511 1.784-1.807 3.587-3.596 5.384-5.391.127-.127.26-.249.396-.378.11.061.198.107.285.157 3.271 1.86 6.685 3.41 10.215 4.707 5.92 2.176 12.007 3.613 18.31 4.08.664.049 1.326.115 1.99.173h4.912c.18-.029.357-.07.536-.085.999-.082 2.002-.127 2.996-.238 7.386-.827 14.28-3.13 20.69-6.895.68-.4.977-.916.973-1.709-.019-3.608 0-7.217.004-10.826 0-.942-.586-1.537-1.534-1.509-6.103.178-11.947-1.053-17.6-3.273-8.133-3.195-15.278-7.963-21.763-13.77-.356-.32-.703-.65-1.147-1.06.198-.145.363-.237.492-.365 1.87-1.863 3.735-3.732 5.602-5.598.42-.42.625-.904.439-1.498-.19-.605-.619-.916-1.236-1.02-2.008-.335-4.014-.684-6.02-1.027L17.178 2.676C12.064 1.803 6.947.935 1.833.055A2.304 2.304 0 0 0 1.439.02C.563.02.001.587 0 1.557m9.161 34.248L3.207 3.187l33.074 5.637c-.156.17-.265.299-.384.418-1.547 1.548-3.096 3.093-4.642 4.644-.722.724-.743 1.533-.016 2.237 7.998 7.744 17.067 13.786 27.675 17.367 3.009 1.016 6.098 1.705 9.278 2.187-.158.061-.314.129-.475.183a62.535 62.535 0 0 1-15.462 3.128c-12.862.952-24.896-1.88-36.232-7.913-1.019-.542-1.488-.489-2.308.331-1.36 1.359-2.72 2.716-4.072 4.08-.125.127-.19.315-.283.473l-.199-.154"/>
        <path id="c" d="M17.354 1.172C11.424 2.318 5.91 4.53.771 7.692c-.519.32-.755.77-.753 1.372.008 3.575.01 7.15.016 10.726.002 1.195.528 1.732 1.709 1.696 4.212-.125 8.323.502 12.355 1.678 7.934 2.313 15.057 6.214 21.68 11.093.066.05.159.062.239.091l-.195.073c-.125.384-.356.767-.358 1.152-.025 3.66-.014 7.319-.005 10.977.002.85.457 1.372 1.295 1.52 1.233.215 2.468.422 3.702.633 5.395.921 10.79 1.843 16.186 2.763 5.807.991 11.615 1.978 17.421 2.973 1.12.193 1.542.011 2.09-.963V41.544c-.034-.091-.084-.179-.1-.273-.748-4.087-1.493-8.175-2.24-12.262-1.49-8.159-2.985-16.316-4.469-24.476-.117-.643-.379-1.151-1.029-1.348-.644-.195-1.153.057-1.616.524-1.784 1.808-3.587 3.597-5.383 5.392-.127.127-.261.246-.39.368-.091-.046-.15-.074-.208-.105-9.665-5.31-19.941-8.534-31-9.077a51.466 51.466 0 0 0-12.364.885m22.537 33.424c.17-.179.289-.308.412-.431 1.513-1.514 3.026-3.025 4.538-4.539.838-.84.847-1.599-.005-2.41-6.219-5.915-12.997-11.053-20.768-14.783A49.29 49.29 0 0 0 9.514 8.046c-.87-.122-1.74-.235-2.61-.352l-.052-.161c1.687-.66 3.354-1.38 5.067-1.967 6.217-2.125 12.622-2.832 19.158-2.345 10.452.78 20.148 3.989 29.21 9.195.76.437 1.362.376 1.989-.25a770.359 770.359 0 0 0 4.25-4.257c.123-.125.175-.323.26-.486l.213.155 5.962 32.654-33.07-5.636"/>
    </defs>
    <g fill="none" fill-rule="evenodd">
        <g transform="translate(0 39.464)">
            <mask id="b" fill="#fff">
                <use xlink:href="#a"/>
            </mask>
            <path fill="#FFB561" d="M0 1.557V6.97c0 1.805 0 3.61.002 5.414 0 .217 0 .437.037.649.73 4.022 1.463 8.044 2.199 12.065 1.524 8.339 3.052 16.676 4.568 25.016.117.642.368 1.158 1.017 1.36.64.198 1.155-.04 1.62-.511 1.784-1.807 3.587-3.596 5.384-5.391.127-.127.26-.249.396-.378.11.061.198.107.285.157 3.271 1.86 6.685 3.41 10.215 4.707 5.92 2.176 12.007 3.613 18.31 4.08.664.049 1.326.115 1.99.173h4.912c.18-.029.357-.07.536-.085.999-.082 2.002-.127 2.996-.238 7.386-.827 14.28-3.13 20.69-6.895.68-.4.977-.916.973-1.709-.019-3.608 0-7.217.004-10.826 0-.942-.586-1.537-1.534-1.509-6.103.178-11.947-1.053-17.6-3.273-8.133-3.195-15.278-7.963-21.763-13.77-.356-.32-.703-.65-1.147-1.06.198-.145.363-.237.492-.365 1.87-1.863 3.735-3.732 5.602-5.598.42-.42.625-.904.439-1.498-.19-.605-.619-.916-1.236-1.02-2.008-.335-4.014-.684-6.02-1.027L17.178 2.676C12.064 1.803 6.947.935 1.833.055A2.304 2.304 0 0 0 1.439.02C.563.02.001.587 0 1.557m9.161 34.248L3.207 3.187l33.074 5.637c-.156.17-.265.299-.384.418-1.547 1.548-3.096 3.093-4.642 4.644-.722.724-.743 1.533-.016 2.237 7.998 7.744 17.067 13.786 27.675 17.367 3.009 1.016 6.098 1.705 9.278 2.187-.158.061-.314.129-.475.183a62.535 62.535 0 0 1-15.462 3.128c-12.862.952-24.896-1.88-36.232-7.913-1.019-.542-1.488-.489-2.308.331-1.36 1.359-2.72 2.716-4.072 4.08-.125.127-.19.315-.283.473l-.199-.154" mask="url(#b)"/>
        </g>
        <g transform="translate(6.267 .193)">
            <mask id="d" fill="#fff">
                <use xlink:href="#c"/>
            </mask>
            <path fill="#FFB25A" d="M17.354 1.172C11.424 2.318 5.91 4.53.771 7.692c-.519.32-.755.77-.753 1.372.008 3.575.01 7.15.016 10.726.002 1.195.528 1.732 1.709 1.696 4.212-.125 8.323.502 12.355 1.678 7.934 2.313 15.057 6.214 21.68 11.093.066.05.159.062.239.091l-.195.073c-.125.384-.356.767-.358 1.152-.025 3.66-.014 7.319-.005 10.977.002.85.457 1.372 1.295 1.52 1.233.215 2.468.422 3.702.633 5.395.921 10.79 1.843 16.186 2.763 5.807.991 11.615 1.978 17.421 2.973 1.12.193 1.542.011 2.09-.963V41.544c-.034-.091-.084-.179-.1-.273-.748-4.087-1.493-8.175-2.24-12.262-1.49-8.159-2.985-16.316-4.469-24.476-.117-.643-.379-1.151-1.029-1.348-.644-.195-1.153.057-1.616.524-1.784 1.808-3.587 3.597-5.383 5.392-.127.127-.261.246-.39.368-.091-.046-.15-.074-.208-.105-9.665-5.31-19.941-8.534-31-9.077a51.466 51.466 0 0 0-12.364.885m22.537 33.424c.17-.179.289-.308.412-.431 1.513-1.514 3.026-3.025 4.538-4.539.838-.84.847-1.599-.005-2.41-6.219-5.915-12.997-11.053-20.768-14.783A49.29 49.29 0 0 0 9.514 8.046c-.87-.122-1.74-.235-2.61-.352l-.052-.161c1.687-.66 3.354-1.38 5.067-1.967 6.217-2.125 12.622-2.832 19.158-2.345 10.452.78 20.148 3.989 29.21 9.195.76.437 1.362.376 1.989-.25a770.359 770.359 0 0 0 4.25-4.257c.123-.125.175-.323.26-.486l.213.155 5.962 32.654-33.07-5.636" mask="url(#d)"/>
        </g>
    </g>
</svg>
